<svg width="133" height="52" viewBox="0 0 133 52" fill="none" xmlns="http://www.w3.org/2000/svg">
<path d="M35.911 3.08241C31.6954 1.02747 26.66 0 20.805 0H0V51.8081H20.6098C32.437 51.8081 41.0634 47.5007 45.6304 39.7551C47.8943 35.9219 49.0263 31.2983 49.0263 25.8843C49.0263 15.0959 44.3423 7.2318 35.911 3.08241ZM29.3143 40.6641C26.8161 41.8101 23.7325 42.4028 20.0633 42.4028H12.2566V9.36577H20.1024C27.4017 9.36577 32.398 11.6183 34.9352 16.479C36.1842 18.8896 36.8088 22.0511 36.8088 25.8843C36.8088 33.5903 34.2716 38.372 29.3143 40.6641Z" fill="white"/>
<path d="M67.7765 40.4004H39.8208V30.6168L63.1401 0H81.2391V31.0005H84.3937V40.4004H81.2391V51.7954H67.7765V40.4004ZM67.7765 31.0005V13.9656L70.5926 8.78603L70.0431 8.32563L53.3522 31.0005H67.7765Z" fill="url(#paint0_linear_9_2827)"/>
<path d="M81.7965 0.87481C81.3565 0.512862 81.2695 1.02562 81.239 1.32724L80.7883 0.331818H81.9798C82.1019 0.663627 82.2364 1.23676 81.7965 0.87481Z" fill="white"/>
<path d="M106.457 34.1436H106.926L118.792 51.8081H133L114.81 25.9238L132.571 0H118.675L106.926 17.6646H106.457L94.747 0H80.773L98.6504 25.9238L80.4607 51.8081H94.5128L106.457 34.1436Z" fill="white"/>
<path d="M106.457 34.1436H106.926L118.792 51.8081H133L114.81 25.9238L132.571 0H118.675L106.926 17.6646H106.457L94.747 0H80.773L98.6504 25.9238L80.4607 51.8081H94.5128L106.457 34.1436Z" fill="url(#paint1_linear_9_2827)"/>
<path d="M106.457 34.1436H106.926L118.792 51.8081H133L114.81 25.9238L132.571 0H118.675L106.926 17.6646H106.457L94.747 0H80.773L98.6504 25.9238L80.4607 51.8081H94.5128L106.457 34.1436Z" fill="url(#paint2_linear_9_2827)"/>
<defs>
<linearGradient id="paint0_linear_9_2827" x1="97.8117" y1="-6.66795" x2="27.5029" y2="33.5749" gradientUnits="userSpaceOnUse">
<stop offset="0.520833" stop-color="white"/>
<stop offset="1" stop-color="white" stop-opacity="0"/>
</linearGradient>
<linearGradient id="paint1_linear_9_2827" x1="80.4607" y1="25.9041" x2="133" y2="25.9041" gradientUnits="userSpaceOnUse">
<stop stop-color="#4BC0C8"/>
<stop offset="0.5" stop-color="#C779D0"/>
<stop offset="1" stop-color="#FEAC5E"/>
</linearGradient>
<linearGradient id="paint2_linear_9_2827" x1="80.4607" y1="25.9041" x2="133" y2="25.9041" gradientUnits="userSpaceOnUse">
<stop stop-color="#2CD1DC"/>
<stop offset="0.5" stop-color="#D05ADE"/>
<stop offset="1" stop-color="#F8C135"/>
</linearGradient>
</defs>
</svg>
