<svg width="123" height="44" viewBox="0 0 123 44" fill="none" xmlns="http://www.w3.org/2000/svg">
<path d="M36.4941 2.19141L39.9756 13.1201H39.0674C37.0088 9.22493 34.8089 6.40951 32.4678 4.67383C30.1266 2.93815 27.3415 2.07031 24.1123 2.07031C21.751 2.07031 19.5007 2.56478 17.3613 3.55371C15.2422 4.54264 13.3753 5.97559 11.7607 7.85254C8.79395 11.2633 7.31055 15.5824 7.31055 20.8096C7.31055 24.8057 8.07747 28.4183 9.61133 31.6475C11.1452 34.8766 13.2643 37.4095 15.9688 39.2461C18.6732 41.0827 21.6702 42.001 24.96 42.001C26.9984 42.001 28.8148 41.668 30.4092 41.002C32.0036 40.3158 33.1338 39.3975 33.7998 38.2471C34.4255 37.1774 34.7383 35.4417 34.7383 33.04V32.0107C34.7383 30.2347 34.6071 28.9027 34.3447 28.0146C34.1025 27.1266 33.6585 26.3698 33.0127 25.7441C31.7816 24.5938 29.9753 23.9176 27.5938 23.7158V22.7773H46.2422V23.7158C44.6276 24.0791 43.4167 24.9167 42.6094 26.2285C42.0443 27.2376 41.7617 29.165 41.7617 32.0107V37.5205L43.6084 40.3057C43.3258 40.2855 43.0029 40.2754 42.6396 40.2754C41.0856 40.2754 39.5921 40.4066 38.1592 40.6689C36.7262 40.9313 34.8695 41.4258 32.5889 42.1523C30.4092 42.8587 28.5423 43.333 26.9883 43.5752C25.4544 43.8376 23.8197 43.9688 22.084 43.9688C15.5046 43.9688 10.348 42.1322 6.61426 38.459C4.57585 36.4206 2.98145 34.029 1.83105 31.2842C0.700846 28.5192 0.135742 25.6937 0.135742 22.8076C0.135742 19.8206 0.721029 16.985 1.8916 14.3008C3.06217 11.6165 4.68685 9.2653 6.76562 7.24707C8.8444 5.22884 11.2663 3.65462 14.0312 2.52441C16.7962 1.37402 19.7227 0.798828 22.8105 0.798828C24.5664 0.798828 26.6755 0.99056 29.1377 1.37402C29.501 1.41439 29.9248 1.48503 30.4092 1.58594C30.9137 1.66667 31.8623 1.82812 33.2549 2.07031C33.9814 2.21159 34.5768 2.28223 35.041 2.28223C35.1217 2.28223 35.263 2.27214 35.4648 2.25195C35.6667 2.23177 35.8887 2.22168 36.1309 2.22168C36.2721 2.22168 36.3932 2.21159 36.4941 2.19141ZM32.4678 23.8672L34.2539 25.1992C34.9401 25.7038 35.374 26.1074 35.5557 26.4102C35.7575 26.7129 35.8584 27.167 35.8584 27.7725C35.8584 27.9743 35.8584 28.1559 35.8584 28.3174C35.8786 28.4788 35.8887 28.6302 35.8887 28.7715V29.2861V33.8877C35.8887 35.5225 35.707 36.7839 35.3438 37.6719C35.0007 38.5599 34.3245 39.5085 33.3154 40.5176C35.2327 39.7305 37.1602 39.2158 39.0977 38.9736V29.2861V28.7715C39.0977 28.4486 39.1077 28.1156 39.1279 27.7725C39.1279 27.167 39.2288 26.7028 39.4307 26.3799C39.6527 26.0368 40.0866 25.6432 40.7324 25.1992L42.5186 23.8672H32.4678ZM19.2988 42.8789C17.0384 42.0918 15.2018 41.2643 13.7891 40.3965C12.3763 39.5286 11.0342 38.3984 9.7627 37.0059C8.0472 35.0482 6.72526 32.7979 5.79688 30.2549C4.88867 27.7119 4.43457 25.0378 4.43457 22.2324C4.43457 19.8307 4.76758 17.4795 5.43359 15.1787C6.09961 12.8779 7.06836 10.8496 8.33984 9.09375C9.69206 7.15625 11.8213 5.1582 14.7275 3.09961C11.8415 4.49219 9.38932 6.17741 7.37109 8.15527C5.37305 10.1331 3.85938 12.3633 2.83008 14.8457C1.82096 17.3281 1.31641 19.9922 1.31641 22.8379C1.31641 26.3496 2.06315 29.5687 3.55664 32.4951C5.07031 35.4215 7.19954 37.793 9.94434 39.6094C12.6891 41.4258 15.8073 42.5156 19.2988 42.8789Z" fill="white"/>
<path d="M47.9375 30.5879C47.9375 28.2467 48.5632 26.0771 49.8145 24.0791C51.0859 22.0609 52.7913 20.4766 54.9307 19.3262C57.0902 18.1556 59.4515 17.5703 62.0146 17.5703C63.932 17.5703 65.7383 17.9033 67.4336 18.5693C69.1289 19.2152 70.6224 20.1436 71.9141 21.3545C73.2057 22.5452 74.2048 23.9479 74.9111 25.5625C75.6377 27.1569 76.001 28.832 76.001 30.5879C76.001 32.9089 75.3753 35.0785 74.124 37.0967C72.8929 39.1149 71.1976 40.7093 69.0381 41.8799C66.8988 43.0303 64.5677 43.6055 62.0449 43.6055C59.4818 43.6055 57.1204 43.0303 54.9609 41.8799C52.8014 40.7295 51.0859 39.1553 49.8145 37.1572C48.5632 35.139 47.9375 32.9492 47.9375 30.5879ZM54.5674 30.4062C54.5674 32.1621 54.7389 33.7767 55.082 35.25C55.4453 36.7233 55.96 37.9847 56.626 39.0342C57.292 40.0635 58.0791 40.8607 58.9873 41.4258C59.9157 41.9909 60.9248 42.2734 62.0146 42.2734C63.0843 42.2734 64.0833 41.9909 65.0117 41.4258C65.9401 40.8405 66.7272 40.0433 67.373 39.0342C68.0189 38.0049 68.5133 36.7435 68.8564 35.25C69.2197 33.7565 69.4014 32.1419 69.4014 30.4062C69.4014 28.0853 69.0885 26.0267 68.4629 24.2305C67.8574 22.4342 66.9896 21.0417 65.8594 20.0527C64.7493 19.0638 63.4577 18.5693 61.9844 18.5693C59.7441 18.5693 57.9479 19.6592 56.5957 21.8389C55.2435 24.0186 54.5674 26.8743 54.5674 30.4062ZM56.8984 41.8799C55.9297 41.113 55.2637 40.5479 54.9004 40.1846C54.5573 39.8011 54.1839 39.2965 53.7803 38.6709C52.4886 36.5719 51.8428 33.8675 51.8428 30.5576C51.8428 25.068 53.7096 21.2132 57.4434 18.9932C55.748 19.6188 54.2546 20.527 52.9629 21.7178C51.6914 22.9085 50.7025 24.2607 49.9961 25.7744C49.3099 27.2881 48.9668 28.8926 48.9668 30.5879C48.9668 32.2428 49.3099 33.8372 49.9961 35.3711C50.6823 36.9049 51.641 38.2269 52.8721 39.3369C53.5381 39.8818 54.0729 40.2855 54.4766 40.5479C54.8802 40.8102 55.6875 41.2542 56.8984 41.8799ZM65.0723 42.3643C67.7363 41.1937 69.7646 39.5993 71.1572 37.5811C72.57 35.5426 73.2764 33.2116 73.2764 30.5879C73.2764 27.9036 72.5902 25.512 71.2178 23.4131C69.8656 21.3141 68.0592 19.8307 65.7988 18.9629C68.8867 21.2233 70.4307 25.068 70.4307 30.4971C70.4307 33.2419 70.0371 35.5326 69.25 37.3691C68.4831 39.2057 67.252 40.7497 65.5566 42.001L65.0723 42.3643Z" fill="white"/>
<path d="M79.2705 43L79.3613 42.0615C81.541 41.6982 83.1253 40.8607 84.1143 39.5488C84.8812 38.5801 85.2646 36.6527 85.2646 33.7666V10.9102C85.2646 9.17448 85.1637 7.88281 84.9619 7.03516C84.7803 6.16732 84.4069 5.42057 83.8418 4.79492C82.8327 3.66471 81.3392 2.93815 79.3613 2.61523V1.67676C80.1283 1.71712 80.5218 1.7373 80.542 1.7373L84.084 1.91895C85.2344 1.97949 86.4655 2.00977 87.7773 2.00977C90.1387 2.00977 92.7018 1.88867 95.4668 1.64648C98.0299 1.44466 99.9271 1.34375 101.158 1.34375C104.387 1.34375 107.314 1.84831 109.938 2.85742C112.561 3.84635 114.832 5.26921 116.749 7.12598C118.687 8.98275 120.18 11.1927 121.229 13.7559C122.279 16.319 122.804 19.1344 122.804 22.2021C122.804 25.29 122.259 28.1458 121.169 30.7695C120.099 33.373 118.555 35.6032 116.537 37.46C114.539 39.2965 112.147 40.7093 109.362 41.6982C106.597 42.6872 103.509 43.1816 100.099 43.1816C98.8473 43.1816 96.8493 43.0605 94.1045 42.8184C92.167 42.6367 90.2799 42.5459 88.4434 42.5459C87.1517 42.5459 85.7188 42.5863 84.1445 42.667L80.0273 42.9697C79.8053 42.9697 79.5531 42.9798 79.2705 43ZM92.3486 9.09375L92.2881 32.4951C92.2881 35.0986 92.5202 36.9857 92.9844 38.1562C93.4284 39.2461 94.1751 40.0938 95.2246 40.6992C96.2943 41.2845 97.5758 41.5771 99.0693 41.5771C101.39 41.5771 103.53 41.1029 105.487 40.1543C107.445 39.1855 109.15 37.8132 110.604 36.0371C112.077 34.2409 113.197 32.1217 113.964 29.6797C114.731 27.2376 115.114 24.6139 115.114 21.8086C115.114 18.1152 114.428 14.8053 113.056 11.8789C111.703 8.95247 109.806 6.66178 107.364 5.00684C104.942 3.33171 102.238 2.49414 99.251 2.49414C96.8896 2.49414 95.1439 3.02897 94.0137 4.09863C92.9036 5.14811 92.3486 6.81315 92.3486 9.09375ZM83.5996 41.4561C85.3555 41.2744 86.9398 41.1836 88.3525 41.1836C89.7653 41.1836 91.1276 41.2542 92.4395 41.3955L91.2588 40.5781C90.6533 40.1745 90.2295 39.791 89.9873 39.4277C89.7653 39.0645 89.6543 38.5902 89.6543 38.0049C89.6341 37.6618 89.624 37.3288 89.624 37.0059V36.4912V8.18555V7.6709C89.624 7.34798 89.6341 7.01497 89.6543 6.67188C89.6543 6.06641 89.7451 5.6123 89.9268 5.30957C90.1286 5.00684 90.5726 4.60319 91.2588 4.09863L92.8633 2.91797C91.0872 3.07943 89.5534 3.16016 88.2617 3.16016C87.0508 3.16016 85.5371 3.08952 83.7207 2.94824L83.1758 2.91797L84.7803 4.09863C85.4261 4.54264 85.8499 4.9362 86.0518 5.2793C86.2738 5.60221 86.3848 6.06641 86.3848 6.67188C86.3848 6.8737 86.3848 7.05534 86.3848 7.2168C86.4049 7.37826 86.415 7.52962 86.415 7.6709V8.18555V36.4912V37.0059C86.415 37.127 86.4049 37.2682 86.3848 37.4297C86.3848 37.5911 86.3848 37.7829 86.3848 38.0049C86.3848 38.6305 86.2939 39.0947 86.1123 39.3975C85.9307 39.68 85.4867 40.0736 84.7803 40.5781L83.5996 41.4561ZM103.974 41.6074C106.295 41.0625 108.293 40.3057 109.968 39.3369C111.643 38.3682 113.217 37.0765 114.69 35.4619C118.021 31.708 119.686 27.2578 119.686 22.1113C119.686 19.0234 119.1 16.1576 117.93 13.5137C116.759 10.8698 115.074 8.62956 112.874 6.79297C110.694 4.9362 108.172 3.61426 105.306 2.82715C106.396 3.35189 107.415 3.94727 108.363 4.61328C109.332 5.25911 110.18 5.97559 110.906 6.7627C111.653 7.5498 112.299 8.3571 112.844 9.18457C115.165 12.7165 116.325 16.9144 116.325 21.7783C116.325 24.3617 116.002 26.834 115.356 29.1953C114.711 31.5566 113.782 33.6152 112.571 35.3711C111.542 36.8848 110.351 38.126 108.999 39.0947C107.667 40.0433 105.992 40.8809 103.974 41.6074Z" fill="white"/>
</svg>
