<svg width="213" height="60" viewBox="0 0 213 60" fill="none" xmlns="http://www.w3.org/2000/svg">
<g clip-path="url(#clip0_279_272)">
<path d="M51.4805 41.2594C49.1239 41.5212 13.5878 0.785538 4.57283 0C1.84216 0 -0.813707 0 0.233677 25.8105C1.07158 46.4588 8.0142 57.207 11.3808 60L51.4805 41.2594Z" fill="white"/>
<path d="M44.1035 34.7126C48.0782 38.6864 50.8749 41.3266 51.4805 41.2593L35.8079 48.5839L32.8213 41.1948L44.1035 34.7126Z" fill="#D9D9D9"/>
<path d="M27.6923 18.226C31.5428 22.0003 35.3725 25.883 38.8019 29.36C40.4789 31.0603 42.0602 32.6635 43.5014 34.1096L32.51 40.4246L25.2522 22.468L27.6923 18.226Z" fill="#D9D9D9"/>
<path d="M20.9219 11.7542C22.937 13.6205 25.0111 15.6064 27.0849 17.6316L24.8605 21.4986L20.9219 11.7542Z" fill="#D9D9D9"/>
<path d="M18.2349 9.30774C18.6562 9.68418 19.0816 10.0679 19.5103 10.4581L24.3391 22.405L6.55507 53.3216C6.52951 53.2721 6.50395 53.2222 6.47839 53.1722L18.2349 9.30774Z" fill="#D9D9D9"/>
<path d="M17.5467 8.69628C11.972 3.77107 7.17096 0.226394 4.57283 0C1.84216 0 -0.813707 0 0.233677 25.8105C0.717475 37.7326 3.23647 46.3543 5.92719 52.0498L17.5467 8.69628Z" fill="#D9D9D9"/>
<path d="M7.81458 55.5625C9.14574 57.7321 10.4116 59.1958 11.3809 60L35.0614 48.9329L32.1011 41.6088L7.81458 55.5625Z" fill="#D9D9D9"/>
<path d="M7.39325 54.8555C7.26629 54.6362 7.13897 54.4106 7.01147 54.1786L24.7309 23.3743L31.7897 40.8385L7.39325 54.8555Z" fill="#D9D9D9"/>
<path d="M44.1036 34.7126C48.0783 38.6864 50.875 41.3266 51.4806 41.2593L35.808 48.5839L32.8214 41.1948L44.1036 34.7126Z" fill="#D9D9D9"/>
<path d="M44.1036 34.7126C48.0783 38.6864 50.875 41.3266 51.4806 41.2593L35.808 48.5839L32.8214 41.1948L44.1036 34.7126Z" fill="url(#paint0_linear_279_272)"/>
<path d="M7.81458 55.5625C9.14574 57.7321 10.4116 59.1958 11.3809 60L35.0614 48.9329L32.1011 41.6088L7.81458 55.5625Z" fill="#D9D9D9"/>
<path d="M7.81458 55.5625C9.14574 57.7321 10.4116 59.1958 11.3809 60L35.0614 48.9329L32.1011 41.6088L7.81458 55.5625Z" fill="url(#paint1_linear_279_272)"/>
<path d="M43.5014 34.1096L32.51 40.4246L25.2522 22.468L27.6923 18.226L43.5014 34.1096Z" fill="#EDFF78"/>
<path d="M7.39319 54.8555C7.26629 54.6362 7.13897 54.4106 7.01147 54.1786L24.7309 23.3743L31.7897 40.8385L7.39319 54.8555Z" fill="#D9D9D9"/>
<path d="M7.39319 54.8555C7.26629 54.6362 7.13897 54.4106 7.01147 54.1786L24.7309 23.3743L31.7897 40.8385L7.39319 54.8555Z" fill="url(#paint2_linear_279_272)"/>
<path d="M20.9218 11.7542C22.9369 13.6205 25.011 15.6064 27.0848 17.6316L24.8603 21.4986L20.9218 11.7542Z" fill="#D9D9D9"/>
<path d="M20.9218 11.7542C22.9369 13.6205 25.011 15.6064 27.0848 17.6316L24.8603 21.4986L20.9218 11.7542Z" fill="#B4FBA6"/>
<path d="M18.2347 9.30774C18.6561 9.68418 19.0815 10.0679 19.5102 10.4581L24.339 22.405L6.55501 53.3216C6.52945 53.2721 6.50383 53.2222 6.47827 53.1722L18.2347 9.30774Z" fill="#D9D9D9"/>
<path d="M18.2347 9.30774C18.6561 9.68418 19.0815 10.0679 19.5102 10.4581L24.339 22.405L6.55501 53.3216C6.52945 53.2721 6.50383 53.2222 6.47827 53.1722L18.2347 9.30774Z" fill="url(#paint3_linear_279_272)"/>
<path d="M17.5467 8.69628C11.972 3.77107 7.17096 0.226394 4.57283 0C1.84216 0 -0.813707 0 0.233677 25.8104C0.717475 37.7326 3.23647 46.3543 5.92719 52.0498L17.5467 8.69628Z" fill="#D9D9D9"/>
<path d="M17.5467 8.69628C11.972 3.77107 7.17096 0.226394 4.57283 0C1.84216 0 -0.813707 0 0.233677 25.8104C0.717475 37.7326 3.23647 46.3543 5.92719 52.0498L17.5467 8.69628Z" fill="url(#paint4_linear_279_272)"/>
<path d="M77.5512 32.0882C77.5128 33.4804 76.7904 34.5116 75.5406 35.0788C74.883 35.3753 74.0964 35.5171 73.1814 35.5171C71.1576 35.5171 69.6366 34.6277 68.8116 32.9777C68.3988 32.1527 68.1924 31.1601 68.1924 29.987C68.1924 27.6281 69.069 25.9523 70.5648 25.1015C71.2992 24.6761 72.1632 24.4699 73.1424 24.4699C75.1662 24.4699 76.6362 25.3593 77.1648 27.0093H81.2766C81.0186 25.3207 80.0652 23.9285 78.6084 22.8972C77.1516 21.8788 75.2436 21.3116 73.0782 21.3116C69.6882 21.3116 66.8652 22.7296 65.2794 25.3207C64.4802 26.6226 64.0806 28.1824 64.0806 30.0128C64.0806 33.5707 65.679 36.2261 68.412 37.6183C69.7656 38.3273 71.3508 38.6753 73.1556 38.6753C76.3908 38.6753 78.969 37.4894 80.4 35.3624C81.1092 34.2925 81.4698 33.0163 81.4698 31.5339V29.407H73.4394V32.0882H77.5512Z" fill="white"/>
<path d="M90.081 38.6883C93.0072 38.6883 95.1726 37.541 96.3198 35.5816C96.8874 34.6019 97.1706 33.4546 97.1706 32.1527C97.1706 29.523 95.985 27.5121 93.8706 26.4163C92.8008 25.875 91.5378 25.6042 90.081 25.6042C87.1806 25.6042 85.002 26.7515 83.8674 28.7109C83.2878 29.6906 83.004 30.8379 83.004 32.1527C83.004 34.7695 84.1902 36.7804 86.3166 37.8633C87.3738 38.4175 88.6242 38.6883 90.081 38.6883ZM90.1068 35.9425C88.7658 35.9425 87.864 35.2464 87.4128 34.0992C87.1806 33.5191 87.0648 32.8746 87.0648 32.1398C87.0648 30.6445 87.5286 29.4714 88.431 28.8269C88.8822 28.5046 89.4366 28.35 90.1068 28.35C91.4346 28.35 92.3238 29.0332 92.7882 30.1675C93.0072 30.7347 93.123 31.3921 93.123 32.1398C93.123 33.5964 92.6592 34.7953 91.7694 35.4527C91.3182 35.775 90.7644 35.9425 90.1068 35.9425Z" fill="white"/>
<path d="M110.861 22.5492C109.468 21.8789 107.806 21.5437 105.872 21.5437H99.0012V38.4434H105.808C109.714 38.4434 112.562 37.0383 114.07 34.5117C114.818 33.2613 115.192 31.7531 115.192 29.9871C115.192 26.468 113.645 23.9027 110.861 22.5492ZM108.682 34.8082C107.857 35.182 106.839 35.3754 105.627 35.3754H103.049V24.5988H105.64C108.05 24.5988 109.7 25.3336 110.539 26.9191C110.951 27.7055 111.157 28.7367 111.157 29.9871C111.157 32.5008 110.319 34.0605 108.682 34.8082Z" fill="white"/>
<path d="M130.429 32.0496C130.429 29.8839 129.707 28.2726 128.469 27.2027C127.232 26.1328 125.543 25.6042 123.635 25.6042C120.812 25.6042 118.672 26.7644 117.538 28.7238C116.958 29.7163 116.674 30.8508 116.674 32.1527C116.674 34.8339 117.847 36.832 120 37.889C121.07 38.4175 122.346 38.6883 123.829 38.6883C126.2 38.6883 128.031 38.0179 129.178 36.8578C129.745 36.2777 130.119 35.6074 130.3 34.8211L126.613 34.6148C126.355 35.2336 125.814 35.6847 125.092 35.9038C124.731 36.0199 124.331 36.0714 123.88 36.0714C122.591 36.0714 121.573 35.53 121.018 34.5504C120.773 34.125 120.632 33.5964 120.606 33.0035H130.429V32.0496ZM122.011 28.6207C122.462 28.35 123.004 28.2211 123.661 28.2211C124.963 28.2211 125.852 28.7625 126.304 29.7163C126.458 30.0515 126.562 30.4254 126.613 30.8379H120.632C120.735 29.8582 121.225 29.0847 122.011 28.6207Z" fill="white"/>
<path d="M136.255 32.0238H144.08V29.1363H136.255V24.4957H144.917V21.5437H132.208V38.4434H136.255V32.0238Z" fill="white"/>
<path d="M154.483 32.6813H154.637L158.556 38.4434H163.248L157.241 30L163.106 21.5437H158.517L154.637 27.3059H154.483L150.616 21.5437H146L151.904 30L145.897 38.4434H150.538L154.483 32.6813Z" fill="white"/>
<path d="M182.339 35.4914H174.102V21.5437H170.054V38.4434H182.339V35.4914Z" fill="white"/>
<path d="M188.217 38.6754C189.648 38.6754 190.718 38.3273 191.491 37.7214C191.878 37.425 192.188 37.0769 192.419 36.6773H192.523V38.4433H196.325V29.8839C196.325 28.3887 195.604 27.3058 194.469 26.6226C193.322 25.9394 191.814 25.6042 190.216 25.6042C187.908 25.6042 186.142 26.2359 185.046 27.3574C184.492 27.9246 184.131 28.5949 183.938 29.3683L187.637 29.6262C187.908 28.7883 188.759 28.1695 190.19 28.1695C191.543 28.1695 192.329 28.7754 192.329 29.8066V29.8711C192.329 30.3996 191.878 30.6445 190.86 30.7863C190.357 30.8508 189.687 30.9281 188.849 30.9925C187.405 31.1086 186.091 31.3792 185.072 31.9722C184.054 32.5652 183.435 33.4933 183.435 34.8984C183.435 36.5613 184.312 37.6828 185.768 38.25C186.49 38.5336 187.302 38.6754 188.217 38.6754ZM189.365 36.2519C188.127 36.2519 187.25 35.7363 187.25 34.7953C187.25 34.125 187.65 33.6867 188.359 33.416C188.707 33.2871 189.119 33.1968 189.596 33.1324C190.383 33.0421 191.852 32.8488 192.355 32.5652V33.9187C192.355 34.7953 191.827 35.53 190.924 35.9425C190.473 36.1488 189.944 36.2519 189.365 36.2519Z" fill="white"/>
<path d="M206.844 38.6496C209.048 38.6496 210.879 37.6441 211.91 35.6976C212.426 34.7309 212.684 33.532 212.684 32.1269C212.684 29.2265 211.523 27.293 209.77 26.3262C208.881 25.8492 207.914 25.6043 206.857 25.6043C205.259 25.6043 204.201 26.1328 203.531 26.8418C203.196 27.2027 202.938 27.5508 202.758 27.8988H202.641V21.5437H198.659V38.4434H202.577V36.4066H202.758C203.132 37.1156 203.789 37.8504 204.872 38.3015C205.413 38.5336 206.07 38.6496 206.844 38.6496ZM205.581 35.8523C204.305 35.8523 203.39 35.1949 202.913 34.0734C202.667 33.5191 202.551 32.8617 202.551 32.114C202.551 30.6059 203.041 29.4714 203.943 28.8527C204.395 28.5434 204.937 28.3887 205.581 28.3887C206.909 28.3887 207.798 29.0589 208.262 30.1805C208.481 30.7347 208.597 31.3793 208.597 32.114C208.597 33.5707 208.12 34.7437 207.231 35.3754C206.78 35.6976 206.239 35.8523 205.581 35.8523Z" fill="white"/>
</g>
<defs>
<linearGradient id="paint0_linear_279_272" x1="52.8561" y1="33.4052" x2="31.9905" y2="45.8939" gradientUnits="userSpaceOnUse">
<stop stop-color="#FC3F44"/>
<stop offset="1" stop-color="#E9BEC0"/>
</linearGradient>
<linearGradient id="paint1_linear_279_272" x1="37.0699" y1="39.8754" x2="8.22173" y2="58.8918" gradientUnits="userSpaceOnUse">
<stop stop-color="#FE6569"/>
<stop offset="0.438284" stop-color="white" stop-opacity="0"/>
<stop offset="0.769627" stop-color="#CD66D0" stop-opacity="0.74"/>
<stop offset="1" stop-color="#563FEB"/>
</linearGradient>
<linearGradient id="paint2_linear_279_272" x1="26.2968" y1="21.0224" x2="1.21813" y2="50.9226" gradientUnits="userSpaceOnUse">
<stop offset="0.0696697" stop-color="#EDFF78"/>
<stop offset="0.510805" stop-color="white" stop-opacity="0.601405"/>
<stop offset="1" stop-color="#3F68FF"/>
</linearGradient>
<linearGradient id="paint3_linear_279_272" x1="22.3595" y1="9.30774" x2="13.6999" y2="53.4275" gradientUnits="userSpaceOnUse">
<stop stop-color="#77FF5B"/>
<stop offset="0.56561" stop-color="#F0F9F5"/>
<stop offset="0.863908" stop-color="#49CDFC"/>
</linearGradient>
<linearGradient id="paint4_linear_279_272" x1="15.602" y1="4.69905e-07" x2="3.47686" y2="51.3203" gradientUnits="userSpaceOnUse">
<stop stop-color="#60FF3E"/>
<stop offset="0.56561" stop-color="#F0F9F5"/>
<stop offset="0.863908" stop-color="#48CCFC"/>
</linearGradient>
<clipPath id="clip0_279_272">
<rect width="213" height="60" fill="white"/>
</clipPath>
</defs>
</svg>
