<svg width="43" height="50" viewBox="0 0 43 50" fill="none" xmlns="http://www.w3.org/2000/svg">
<g clip-path="url(#clip0_377_1286)">
<path d="M42.9005 34.3828C40.9366 34.601 11.3232 0.654613 3.81069 0C1.53513 0 -0.678088 0 0.19473 21.5087C0.892984 38.7157 6.67852 47.6725 9.48401 50L42.9005 34.3828Z" fill="white"/>
<path d="M36.7529 28.9273C40.0652 32.2388 42.3958 34.4389 42.9005 34.3828L29.8399 40.4866L27.3511 34.3291L36.7529 28.9273Z" fill="#D9D9D9"/>
<path d="M23.0769 15.1883C26.2857 18.3335 29.4771 21.5692 32.3349 24.4667C33.7324 25.8836 35.0501 27.2196 36.2511 28.4246L27.0917 33.6872L21.0435 18.7233L23.0769 15.1883Z" fill="#D9D9D9"/>
<path d="M17.4348 9.79515C19.1141 11.3504 20.8425 13.0054 22.5707 14.693L20.717 17.9156L17.4348 9.79515Z" fill="#D9D9D9"/>
<path d="M15.1957 7.75641C15.5468 8.07011 15.9013 8.38988 16.2586 8.71503L20.2826 18.6708L5.46256 44.4346C5.44125 44.3933 5.41994 44.3518 5.39864 44.3101L15.1957 7.75641Z" fill="#D9D9D9"/>
<path d="M14.6223 7.24691C9.97664 3.14256 5.9758 0.188661 3.81069 0C1.53513 0 -0.678088 0 0.19473 21.5087C0.597895 31.4439 2.69705 38.6286 4.93933 43.3748L14.6223 7.24691Z" fill="#D9D9D9"/>
<path d="M6.51209 46.3021C7.6214 48.1101 8.67623 49.3298 9.48401 50L29.2178 40.7774L26.7508 34.674L6.51209 46.3021Z" fill="#D9D9D9"/>
<path d="M6.16098 45.7129C6.05519 45.5302 5.94909 45.3422 5.84285 45.1489L20.6091 19.4786L26.4914 34.0321L6.16098 45.7129Z" fill="#D9D9D9"/>
<path d="M36.7529 28.9272C40.0651 32.2388 42.3958 34.4389 42.9004 34.3828L29.8399 40.4866L27.3511 34.3291L36.7529 28.9272Z" fill="#D9D9D9"/>
<path d="M36.7529 28.9272C40.0651 32.2388 42.3958 34.4389 42.9004 34.3828L29.8399 40.4866L27.3511 34.3291L36.7529 28.9272Z" fill="url(#paint0_linear_377_1286)"/>
<path d="M6.51221 46.3021C7.62152 48.1101 8.67635 49.3298 9.48412 50L29.2179 40.7774L26.7509 34.674L6.51221 46.3021Z" fill="#D9D9D9"/>
<path d="M6.51221 46.3021C7.62152 48.1101 8.67635 49.3298 9.48412 50L29.2179 40.7774L26.7509 34.674L6.51221 46.3021Z" fill="url(#paint1_linear_377_1286)"/>
<path d="M36.2511 28.4247L27.0917 33.6872L21.0435 18.7234L23.0769 15.1884L36.2511 28.4247Z" fill="#EDFF78"/>
<path d="M6.1609 45.7129C6.05511 45.5302 5.94901 45.3421 5.84277 45.1488L20.609 19.4785L26.4913 34.032L6.1609 45.7129Z" fill="#D9D9D9"/>
<path d="M6.1609 45.7129C6.05511 45.5302 5.94901 45.3421 5.84277 45.1488L20.609 19.4785L26.4913 34.032L6.1609 45.7129Z" fill="url(#paint2_linear_377_1286)"/>
<path d="M17.4348 9.79517C19.1141 11.3505 20.8425 13.0054 22.5707 14.693L20.717 17.9156L17.4348 9.79517Z" fill="#D9D9D9"/>
<path d="M17.4348 9.79517C19.1141 11.3505 20.8425 13.0054 22.5707 14.693L20.717 17.9156L17.4348 9.79517Z" fill="#B4FBA6"/>
<path d="M15.1957 7.75647C15.5469 8.07017 15.9013 8.38994 16.2586 8.71509L20.2826 18.6708L5.4626 44.4347C5.44129 44.3934 5.41998 44.3519 5.39868 44.3102L15.1957 7.75647Z" fill="#D9D9D9"/>
<path d="M15.1957 7.75647C15.5469 8.07017 15.9013 8.38994 16.2586 8.71509L20.2826 18.6708L5.4626 44.4347C5.44129 44.3934 5.41998 44.3519 5.39868 44.3102L15.1957 7.75647Z" fill="url(#paint3_linear_377_1286)"/>
<path d="M14.6223 7.24691C9.97664 3.14256 5.9758 0.188661 3.81069 0C1.53513 0 -0.678088 0 0.19473 21.5087C0.597895 31.4439 2.69705 38.6286 4.93933 43.3748L14.6223 7.24691Z" fill="#D9D9D9"/>
<path d="M14.6223 7.24691C9.97664 3.14256 5.9758 0.188661 3.81069 0C1.53513 0 -0.678088 0 0.19473 21.5087C0.597895 31.4439 2.69705 38.6286 4.93933 43.3748L14.6223 7.24691Z" fill="url(#paint4_linear_377_1286)"/>
</g>
<defs>
<linearGradient id="paint0_linear_377_1286" x1="44.0466" y1="27.8377" x2="26.6586" y2="38.2449" gradientUnits="userSpaceOnUse">
<stop stop-color="#FC3F44"/>
<stop offset="1" stop-color="#E9BEC0"/>
</linearGradient>
<linearGradient id="paint1_linear_377_1286" x1="30.8916" y1="33.2294" x2="6.8515" y2="49.0764" gradientUnits="userSpaceOnUse">
<stop stop-color="#FE6569"/>
<stop offset="0.438284" stop-color="white" stop-opacity="0"/>
<stop offset="0.769627" stop-color="#CD66D0" stop-opacity="0.74"/>
<stop offset="1" stop-color="#563FEB"/>
</linearGradient>
<linearGradient id="paint2_linear_377_1286" x1="21.9139" y1="17.5186" x2="1.01499" y2="42.4355" gradientUnits="userSpaceOnUse">
<stop offset="0.0696697" stop-color="#EDFF78"/>
<stop offset="0.510805" stop-color="white" stop-opacity="0.601405"/>
<stop offset="1" stop-color="#3F68FF"/>
</linearGradient>
<linearGradient id="paint3_linear_377_1286" x1="18.633" y1="7.75647" x2="11.4167" y2="44.523" gradientUnits="userSpaceOnUse">
<stop stop-color="#77FF5B"/>
<stop offset="0.56561" stop-color="#F0F9F5"/>
<stop offset="0.863908" stop-color="#49CDFC"/>
</linearGradient>
<linearGradient id="paint4_linear_377_1286" x1="13.0017" y1="2.63779e-07" x2="2.89738" y2="42.7669" gradientUnits="userSpaceOnUse">
<stop stop-color="#60FF3E"/>
<stop offset="0.56561" stop-color="#F0F9F5"/>
<stop offset="0.863908" stop-color="#48CCFC"/>
</linearGradient>
<clipPath id="clip0_377_1286">
<rect width="42.9005" height="50" fill="white"/>
</clipPath>
</defs>
</svg>
